<?xml version="1.0" encoding="utf-8"?>
<!-- Generator: Adobe Illustrator 27.0.1, SVG Export Plug-In . SVG Version: 6.00 Build 0)  -->
<svg version="1.1" id="Layer_1" xmlns="http://www.w3.org/2000/svg" xmlns:xlink="http://www.w3.org/1999/xlink" x="0px" y="0px"
	 viewBox="0 0 57.54 11.95" style="enable-background:new 0 0 57.54 11.95;" xml:space="preserve">
<style type="text/css">
	.st0{fill-rule:evenodd;clip-rule:evenodd;}
</style>
<g>
	<path class="st0" d="M53.82,5.17c-1.12,0-1.64,0.83-1.74,1.67h3.41C55.49,6.02,55.11,5.17,53.82,5.17L53.82,5.17z M53.77,3.5
		c2.23,0,3.77,1.19,3.77,3.79v0.96h-5.5c0.05,1.32,0.81,1.99,1.78,1.99c0.89,0,1.58-0.45,1.94-1.21l1.69,0.86
		c-0.72,1.26-1.82,2.05-3.58,2.05c-2.61,0-3.97-1.65-3.97-4.27C49.91,5.08,51.44,3.5,53.77,3.5L53.77,3.5z M10.83,3.66v4.79h0
		c0,1.24-0.49,1.72-1.43,1.72c-0.94,0-1.45-0.48-1.45-1.72V3.66h-2.1v4.78c0,2.36,1.21,3.5,3.55,3.5s3.54-1.15,3.54-3.5V3.66
		L10.83,3.66L10.83,3.66z M15,0.64h2.1v3.03h2.6v1.77h-2.6v3.6c0,0.88,0.46,1.15,1.07,1.15c0.48,0,0.75-0.17,1.08-0.48l0.81,1.5
		c-0.67,0.51-1.42,0.76-2.26,0.75c-1.82,0-2.81-1.07-2.81-2.66L15,0.64L15,0.64z M24.91,10.18c0.94,0,1.43-0.48,1.43-1.72V3.66h2.1
		v4.78c0,2.36-1.19,3.5-3.54,3.5c-2.34,0-3.55-1.15-3.55-3.5V3.66h2.1v4.79C23.46,9.7,23.97,10.18,24.91,10.18L24.91,10.18z
		 M32.78,5.43h2.82V3.66h-4.92v8.12h2.1V5.43z M37.06,3.66h2.1v8.12h-2.1V3.66z M48.61,6.02c-0.53-1.69-1.59-2.52-3.54-2.52v0.01
		c-2.45,0-3.93,1.59-3.93,4.22c0,2.63,1.48,4.22,3.93,4.22c1.94,0,3.01-0.83,3.54-2.52l-1.94-0.48c-0.27,0.81-0.77,1.22-1.53,1.22
		c-1.21,0-1.8-0.81-1.8-2.45c0-1.64,0.6-2.45,1.8-2.45c0.76,0,1.26,0.41,1.53,1.23L48.61,6.02L48.61,6.02z M38.13,0.16
		c0.17,0,0.34,0.03,0.49,0.1s0.3,0.16,0.42,0.28c0.12,0.12,0.21,0.26,0.28,0.42c0.07,0.16,0.1,0.32,0.1,0.49
		c0,0.17-0.03,0.34-0.1,0.49c-0.07,0.16-0.16,0.3-0.28,0.42c-0.12,0.12-0.26,0.21-0.42,0.28s-0.32,0.1-0.49,0.1
		c-0.17,0-0.34-0.03-0.49-0.1c-0.16-0.07-0.3-0.16-0.42-0.28C37.1,2.24,37,2.1,36.94,1.94s-0.1-0.32-0.1-0.49v0
		c0-0.17,0.03-0.33,0.1-0.49c0.06-0.16,0.16-0.3,0.28-0.42c0.12-0.12,0.26-0.21,0.42-0.28C37.78,0.19,37.95,0.16,38.13,0.16
		L38.13,0.16L38.13,0.16z M0,2.67C0,1.08,0.99,0,2.81,0C3.58-0.01,4.3,0.21,4.94,0.65L4.11,2.11C3.83,1.87,3.5,1.75,3.12,1.76
		c-0.68,0-1.02,0.43-1.02,1.15v0.75h2.44v1.77H2.1v6.36H0V2.67L0,2.67z"/>
</g>
</svg>
