<?xml version="1.0" encoding="utf-8"?>
<!-- Generator: Adobe Illustrator 27.0.1, SVG Export Plug-In . SVG Version: 6.00 Build 0)  -->
<svg version="1.1" id="Layer_1" xmlns="http://www.w3.org/2000/svg" xmlns:xlink="http://www.w3.org/1999/xlink" x="0px" y="0px"
	 viewBox="0 0 805.8 480.2" style="enable-background:new 0 0 805.8 480.2;" xml:space="preserve">
<style type="text/css">
	.st0{fill-rule:evenodd;clip-rule:evenodd;fill:#1D1E1C;}
</style>
<path class="st0" d="M69,410.3h-0.9v0.9H69V410.3z M110,118.7h-1.8v-0.9h-0.9v0.9h-0.9v0.9h-1.8v0.9H103v0.9h-1.8v0.9h-2.7v0.9h-0.9
	v0.9h-0.9v0.9h-1.6v0.9h-0.9v0.9h-0.9v0.9h-1.8v0.9h-0.9v0.9h-0.9v0.9h-1.6v1.7h-0.9v1.7h-0.9v0.9h-0.9v1.7h-0.9v1.7h-0.9v0.9h-0.9
	v1.7h-0.9v0.9h-0.9v0.9H80v0.9h-0.9v0.9h-0.9v0.9h-1.8v0.9H76v0.9h-0.9v0.9h-0.9v0.9h-0.9v1.7h-0.9v1.7h-0.9v0.9h-0.9v1.7h-0.9v1.7
	H69v0.9h-0.9v2.6h-0.9v1.7h-0.9v1.7h-0.9v1.7h-0.9v1.7h-0.9v1.7h-0.9v1.7H62v1.7h-0.9v1.7h-0.9v1.7h-0.9v0.9h-0.9v2.6h-0.9v2.6h-0.9
	v1.7h-0.9v2.6H55v2.6h-0.9v1.7h-0.9v2.6h-0.9v2.6h-0.9v1.7h-0.9v2.6h-0.9v2.6h-0.9v1.7H48v2.6h-0.9v1.7h-0.9v3.5h-0.9v3.5h-0.9v3.5
	h-0.9v3.5h-0.9v3.5h-0.9v17.5h3.6v-0.9h0.9v-0.9h0.9V241H48v-0.9h1.8v-0.9h0.9v-0.9h0.9v-0.9h0.9v-0.9h0.9v-0.9h0.9v-0.9H55V234h0.9
	v-0.9h0.9v-0.9h0.9v-0.9h0.9v-0.9h0.9v-0.9h0.9v-0.9h0.9v-0.9H62V227h0.9v-1.7h0.9v-0.9h0.9v-0.9h0.9v-1.7h0.9v-0.9h0.9V220h0.9
	v-1.7H69v-0.9h0.9v-0.9h0.9v-1.7h0.9v-0.9h0.9V213h0.9v-1.7h0.9v-0.9h0.9v-0.9H76v-1.7h0.9v-0.9h0.9V206h0.9v-1.7h0.9v-0.9h0.9v-1.7
	h0.9V200h0.9v-1.7h0.9v-1.7h0.9v-1.7H85V194h0.9v-1.7h0.9v-1.7h0.9v-1.7h0.9v-1.7H89v-1.7h0.9v-0.9h0.9v-1.7h0.9v-1.7h0.9V179h0.9
	v-1.7h0.9v-1.7h0.9V173H96v-2.6h0.9v-2.6h0.9V165h0.9v-1.7h0.9v-2.6h0.9V159h0.9v-2.6h0.9v-2.6h0.9V151h0.9v-2.6h0.9v-2.6h0.9v-3.5
	h0.9v-4.4h0.9v-4.4h0.9v-5.2h0.9V124h0.9v-5.3H110z M118.7,316h0.9v1.7h-0.9v0.9h-0.9v1.7H117v1.7h-0.9v1.7h-0.9v0.9h-0.9v1.7h-0.9
	v0.9h-0.9v0.9h-0.9v0.9h-0.9v0.9H110v0.9h-0.9v1.7h-0.9v0.9h-0.9v0.9h-0.9v0.9h-0.9v0.9h-0.9v0.9h-0.9v-2.6h0.9v-3.5h0.9v-1.7h0.9
	v-0.9h0.9v-1.7h0.9v-0.9h0.9V324h0.9v-1.7h0.9v-1.7h0.9v-1.7h0.9v-1.7h0.9v-1.7h1.8v-0.9h0.9v-0.9h0.9v2.6h1.5L118.7,316L118.7,316z
	 M119.6,315.2h0.9v0.9h-0.9V315.2z M126.6,304.7h0.9v2.6h-1.8v-2.6H126.6z M167.6,193.8h0.9v0.9h-2.7v-0.9H167.6z M173.7,198.2H172
	v0.9h-1.8v6.1h0.9v-1.7h0.9v-1.7h0.9v-1.7h0.9v-1.9L173.7,198.2z M178.1,201.7h-1.8v0.9h-1.8v1.7h-0.9v1.7h-0.9v4.4h0.9v-0.9h0.9
	v-0.9h0.9v-0.9h0.9V206h0.9v-2.6h0.9L178.1,201.7L178.1,201.7z M184.2,211.3h0.9v0.9h-0.9V211.3z M186,219.1h0.9v0.9H186V219.1z
	 M208.7,129.2h-0.9v0.9h0.9V129.2z M220,95.2h-0.9v1.7h-0.9v1.7h-0.9v0.9h-0.9v1.7h0.9v3.5h-0.9v1.7h-0.9v1.7h-0.9v2.6h-0.9v1.7H213
	v1.7h-0.9v1.7h-0.9v3.5h-0.9v3.5h-0.9v2.6h-0.9v2.6h0.9v-1.7h0.9v-1.7h0.9v-1.7h0.9v-1.7h0.9v-1.7h0.9v-1.7h0.9v-1.7h0.9v-2.6h0.9
	v-2.6h0.9v-2.6h0.9v-2.6h0.9V103h0.9v-7.8H220z M233.1,103h0.9v2.6h-0.9V103L233.1,103z M237.5,75.1h0.9v10.5h-0.9v7.9h-0.9V97h-0.9
	v2.6h-0.9v3.5H234v-5.2h0.9v-6.1h0.9v-5.2h0.9v-8.7h-0.9V77h-0.9v-1.7H234v-1.7h2.7v-0.9h0.9v2.4L237.5,75.1z M412.1,110.9h0.9v2.6
	h-0.9v0.9h-1.8v-3.5H412.1z M440,394.6h-0.9v1.7h0.9V394.6z M481,215.6h-0.9v-0.9h-0.9v-0.9h-0.9V213h-0.9v-0.9h-0.9v-0.9h-0.9v-0.9
	h-0.9v-1.7h-4.5v0.9h-0.9v0.9H468v1.7h-0.9v0.9h-0.9v0.9h-0.9v0.9h-0.9v0.9h-0.9v2.6h-0.9v1.7h-0.9v1.7H461v1.7h-0.9v1.7h-0.9v1.7
	h-0.9v1.7h-0.9v1.7h-0.9v1.7h-0.9v1.7h-0.9v1.7H454v1.7h-0.9v1.7h-0.9v2.6h-0.9v2.6h-0.9v1.7h-0.9v2.6h-0.9v1.7h-0.9v2.6H447v1.7
	h-0.9v2.6h-0.9v1.7h-0.9v2.6h-0.9v1.7h-0.9v3.5h-0.9v2.6h-0.9v2.6H440v2.6h-0.9v3.5h-0.9v2.6h-0.9v2.6h-0.9v2.6h-0.9v2.6h-0.9v3.5
	h-0.9v3.5H433v2.6h-0.9v3.5h-0.9v3.5h-0.9v2.6h-0.9v3.5h-0.9v2.6h-0.9v3.5h-0.9v3.5H426v3.5h-0.9v3.5h-0.9v3.5h-0.9v3.5h-0.9v3.5
	h-0.9v2.6h-0.9v4.4h-0.9v4.4h-0.9v4.4h-0.9v13.1h0.9v-0.9h0.9v-0.9h0.9V364h0.9v-0.9h0.9v-0.9h0.9v-0.9h0.9v-0.9h0.9v-1.7h0.9v-0.9
	h0.9v-0.9h0.9v-1.7h0.9v-0.9h0.9v-0.9h0.9v-1.7h0.9v-0.9h0.9v-1.7h0.9v-1.7h0.9v-1.7h0.9V344h0.9v-1.7h0.9v-1.7h0.9v-1.7h0.9v-1.7
	h0.9v-1.7h0.9v-1.7h0.9v-1.7h0.9V330h0.9v-0.9h0.9v-1.7h0.9v-1.7h0.9v-0.9h0.9V323h0.9v-1.7h0.9v-0.9h0.9v-1.7h0.9V317h0.9v-1.7h0.9
	v-2.6h0.9v-2.6h0.9v-2.6h0.9v-2.6h0.9v-2.6h0.9v-1.7h0.9V298h0.9v-2.6h0.9v-2.6h0.9v-1.7h0.9v-2.6h0.9v-2.6h0.9v-2.6h0.9v-1.7h0.9
	V279h0.9v-2.6h0.9v-2.6h0.9v-0.9h0.9V272h0.9v-0.9h0.9V268h0.9v-2.6h0.9v-3.5h0.9v-2.6h0.9v-3.5h0.9v-2.6h0.9v-3.5h0.9v-2.6h0.9
	v-3.5h0.9v-4.4h0.9v-4.4h0.9v-4.4h0.9V226h0.9v-4.4h0.9v-6H481z M688,44.5h0.9v8.7H688v3.5h-0.9V62h-0.9v3.5h-0.9v2.6h-0.9v1.7h-0.9
	v0.9h-0.9v0.9h-0.9v0.9H681v-1.7h-0.9v1.7h-0.9v0.9h-0.9v0.9h-0.9V76h-0.9v0.9h-0.9v0.9h-0.9v0.9H674v1.7h-0.9v0.9h-0.9V83h-0.9v0.9
	h-0.9v1.7h-0.9v0.9h-0.9v0.9H667v0.9h-3.6v0.9h-0.9v0.9h-0.9V91H660v0.9h-1.8v0.9H653v-0.9h-1.8v0.9h-1.8v0.9h-7.2v0.9h-3.6v0.9H635
	v-1.7h-0.9v-1.7h-0.9v-2.6H633v-1.7h-0.9v-2.6h-0.9V80h-0.9v-5.2h-1.8v-0.9h-0.9V73h-0.9v-0.9H626V69h0.9v-3.5H626v-5.2h-3.6v-1.7
	h1.8v-0.9h0.9v-0.9h0.9v-0.9h0.9V55h0.9v-1.7h0.9v-0.9h0.9v-0.9h0.9v-0.9h0.9v-1.7h0.9V48h0.9v-0.9h0.9v-0.9h0.9v-1.7h0.9v-0.9h0.9
	v-1.7h0.9v-1.7h0.9v-1.7h0.9v-1.7h0.9v-1.7h0.9v-1.7h0.9v-1.7h0.9V30h0.9v-1.7h0.9v-1.7h0.9v-1.7h0.9v-1.7h0.9V21h0.9v-1.7h0.9v-1.7
	h0.9V15h0.9v-1.7h0.9v-1.7h0.9v-2h0.9V7.9h0.9V6.1h0.9V4.4h0.9V2.6h0.9V0h0.9v0.9h3.6v0.9h0.9v0.9h1.8v0.9h4.5v-1h1.8V1.7h0.9v7h0.9
	v1.7h0.9v1.7h0.9V14h0.9v0.9h0.9v1.7h0.9v1.7h0.9v0.9h0.9V21h0.9v1.7h0.9v0.9h0.9v1.7h0.9v0.9h0.9v4.4h0.9v0.9h0.9v0.9h0.9V34h0.9
	v0.9h0.9V41h0.9v1.7h0.9v1.8H688z M727.2,181.6h-0.9v0.9h-0.9v0.9h-1.8v0.9h-0.9v0.9h-1.6v0.9h-0.9v0.9h-1.8v0.9h-0.9v0.9h-0.9v0.9
	h-0.9v0.9H715v0.9h-0.9v0.9h-0.9v0.9h-0.9v0.9h-1.8v0.9h-0.9v0.9h-0.9v0.9H708v0.9h-0.9v0.9h-1.8v0.9h-0.9v0.9h-0.9v0.9h-0.9v0.9
	h-0.9v0.9h-1.8v0.9H699v0.9h-0.9v0.9h-0.9v0.9h-0.9v0.9h-1.8v0.9h-0.9v0.9h-0.9v0.9h-0.9v0.9h-0.9v0.9h-1.8v1.7h-0.9v0.9H688v0.9
	h-0.9v0.9h-0.9v0.9h-0.9v0.9h-0.9v0.9h-0.9v0.9h-0.9v0.9h-0.9v0.9H681v1.7h-0.9v0.9h-0.9v0.9h-0.9v0.9h-0.9v0.9h-0.9v0.9h-0.9v0.9
	h-0.9v0.9H674v0.9h-0.9v0.9h-0.9v0.9h-0.9v1.7h-0.9v0.9h-0.9v0.9h-0.9v1.7h-0.9v0.9H667v0.9h-0.9v1.7h-0.9v0.9h-0.9v0.9h-0.9v1.7
	h-0.9v0.9h-0.9v0.9h-0.9v1.7H660v0.9h-0.9v0.9h-0.9v1.7h-0.9v0.9h-0.9v0.9h-0.9v0.9h-0.9v1.7h-0.9v0.9H653v1.7h-0.9v0.9h-0.9v1.7
	h-0.9v0.9h-0.9v1.7h-0.9v0.9h-0.9v1.7h-0.9v0.9h-0.9v1.7h-0.9v0.9H644v1.7h-0.9v0.9h-0.9v1.7h-0.9v0.9h-0.9v0.9h-0.9v2.6h-0.9v2.6
	h-0.9v2.6h-0.9v1.7h3.6v-0.9h0.9V284h1.8v-2h0.9v-0.9h1.8v-0.9h0.9v-0.9h1.8v-0.9h0.9v-0.9h1.8v-0.9h0.9v-0.9h1.8V275h0.9v-0.9h1.8
	v-0.9h0.9v-0.9h0.9v-0.9h1.8v-0.9h0.9v-0.9h0.9v-0.9h0.9V268h0.9v-0.9h0.9v-0.9h0.9v-0.9h0.9v-0.9h0.9v-0.9h1.8v-0.9h0.9v-0.9h0.9
	V261h0.9v-0.9h0.9v-0.9h0.9v-0.9h0.9v-0.9h0.9v-0.9h0.9v-0.9h0.9v-0.9h0.9v-0.9h0.9v-0.9h0.9V252h0.9v-0.9h0.9v-0.9h0.9v-0.9h0.9
	v-0.9h0.9v-0.9h0.9v-0.9h0.9v-0.9h0.9v-0.9h0.9v-0.9h0.9V243h0.9v-0.9h0.9v-0.9h0.9V241h0.9v-0.9h0.9v-0.9h0.9v-1.7h0.9v-0.9h0.9
	v-0.9h0.9v-0.9h0.9V234h0.9v-0.9h0.9v-1.7h0.9v-0.9h0.9v-0.9h0.9v-0.9h0.9v-0.9h0.9V227h0.9v-1.7h0.9v-0.9h0.9v-0.9h0.9v-0.9h0.9
	v-0.9h0.9v-0.9h0.9v-1.7h0.9v-0.9h0.9v-1.7h0.9v-1.7h0.9V213h0.9v-0.9h0.9v-1.7h0.9v-1.7h0.9V207h0.9v-1h0.9v-1.7h0.9v-1.7h0.9v-1.7
	h0.9V200h0.9v-1.7h0.9v-1.7h0.9v-1.7h0.9v-1.7h0.9v-1.7h0.9V188h0.9v-3.5h0.9v-2.9H727.2z M764.8,289.9H763v0.9h-1.8v0.9h2.7v-0.9
	h0.9L764.8,289.9L764.8,289.9z M804.9,264.5h0.9v2.6h-0.9v1.7H804v1.7h-0.9v1.7h-0.9v1.7h-0.9v1.7h-0.9v0.9h-0.9v0.9h-0.9v0.9H798
	v0.9h-0.9v0.9h-0.9v0.9h-0.9v0.9h-0.9v0.9h-0.9v0.9h-0.9v0.9H791v0.9h-0.9v0.9h-1.8v0.9h-1.8v0.9h-0.9v0.9H784v0.9h-0.9v0.9h-1.8
	v0.9h-1.8v0.9h-0.9v0.9H777v0.9h-5.4v-0.9h0.9v-0.9h0.9V291h-0.9v-0.9h-0.9v1.7h-0.9v0.9h-1.6v0.9h-2.7v0.9H763v0.9h-1.8v0.9h-1.8
	v0.9h-2.7V296h-0.9v-0.9h-0.9v-0.9h-2.7v-0.9h-2.7v-0.9h-0.9v2.6h1.8v2.6h-0.9v0.9h-0.9v-0.9h-0.9v-0.9h-0.9V296h-0.9v0.9h-4.7V296
	h-0.9v-0.9h-0.9v-1.7h-1.7v-0.9H736v-0.9h-1.8v-0.9h-2.6v-0.9H729V289h-2.7v-0.9h-1.8v-0.9h-1.8v-0.9h-1.6v-0.9h-1.8v-0.9h-1.8v-0.9
	h-1.8v-0.9H715V282h-0.9v-0.9h-0.9v-0.9h-0.9v-0.9h-0.9v-1.7h-0.9v-0.9h-0.9V275h-0.9v-3.5H708V268h-0.9v-1.7h-0.9v-2.6h-0.9V261
	h-0.9v1.7h-0.9v0.9h-0.9v0.9h-0.9v0.9h-0.9v0.9h-0.9v0.9H699v1.7h-0.9v0.9h-0.9v0.9h-0.9v0.9h-0.9v0.9h-0.9v0.9h-0.9v0.9h-0.9v0.9
	h-0.9v0.9h-0.9v0.9H690v0.9h-0.9v0.9h-0.9v0.9H688v0.9h-0.9v0.9h-0.9v0.9h-0.9v0.9h-0.9v0.9h-0.9v0.9h-0.9v0.9h-0.9v0.9H681v0.9
	h-0.9v0.9h-0.9v0.9h-0.9v0.9h-0.9v0.9h-1.8v0.9h-0.9v0.9H674v0.9h-0.9v0.9h-1.8v0.9h-0.9v0.9h-0.9v0.9h-0.9v0.9H667v0.9h-0.9v0.9
	h-1.8v0.9h-0.9v0.9h-1.8v0.9h-0.9v0.9h-1.6v0.9h-0.9v0.9h-1.8v0.9h-0.9v0.9h-1.8v0.9h-1.6v1.7h-0.9v1.7h-0.9v0.9h-0.9v1.7h-0.9v0.9
	h-0.9v0.9h-0.9v0.9h-1.8v0.9h-1.8v0.9h-1.8v0.9h-1.8v0.9h-6.3v-0.9h-1.1V319h-1.8v-0.9h-0.9V316h-1.8v-0.9h-0.9v-0.9H626v-0.9h-1.8
	v-0.9h-0.9v-0.9h-1.8v-0.9h-0.9v-0.9h-0.9v-0.9h-1.6v-0.9h-1.8V307h-3.6v-0.9h-1.6v-0.9h-1.8v-0.9h-0.9v-0.9h-0.9v-0.9h-0.9v-0.9
	h-0.9v-0.9H605V299h-0.9v-0.9h-0.9v-1.7h-0.9v-1.7h-0.9V293h-0.9v-1.7h-0.9v-1.7h-0.9v0.9H598v0.9h-1.8v0.9h-1.8v0.9h-0.9v0.9h-1.8
	v0.9h-1.8v0.9h-1.8v0.9h-1.8v0.9h-2.7v0.9h-1.8v0.9h-2.7v0.9h-2.9v-0.9h-0.9v-0.9h-0.9v-0.9h-0.9v-0.9h-1.8V296h-1.6v-0.9h-1.8v-0.9
	h-2.7v-0.9H564v-0.9h-2.7v-0.9h-1.8v-0.9h-1.8v-0.9h-2.6V289h-2.6v-0.9H550v-0.9h-2.7v-0.9h-1.8v-0.9h-0.9v-0.9h-0.9v-0.9H543v-0.9
	h-0.9V282h-0.9v-1.7h-0.9v-0.9h-0.9v-1.7h-0.9v-3.5h-0.9v-4.4h-0.9v-4.4h-0.9v-10.5h0.9v-3.5h0.9v-3.5h0.9v-4.4h0.9v-4.4h0.9v-2.6
	h0.9V234h0.9v-2.6h0.9v-2.6h0.9v-2.6h-2.7v-0.9h-0.9v0.9h-2.7v0.9h-0.9v0.9h-1.8v0.9h-1.8v0.9h-2.7v0.9h-8.3v0.9h-2.7v0.9h-4.3v-0.9
	h-1.8v-0.9h-2.7v-0.9H509v-0.9h-1.8V228h-1.8v-1h-0.9v0.9h-0.9v0.9h-0.9v0.9h-1.6v3.5h-0.9v3.5h-0.9v3.5h-0.9v3.5h-0.9v3.5h-0.9v3.5
	h-0.9v3.5H495v3.5h-0.9v3.5h-0.9v3.5h-0.9v3.5h-0.9v4.4h-0.9v3.5h-0.9v4.4h-0.9v3.5H488v3.5h-0.9v5.2h-0.9v4.4h-0.9v5.2h-0.9v8.7
	h-0.9v3.5h-0.9v3.5h-0.9v2.6H481v5.2h-0.9v4.4h-0.9v4.4h-0.9v2.6h-0.9v1.7h-0.9v2.6h-0.9v1.7h-0.9v2.6h-0.9v1.7h-0.9v2.6H472v1.7
	h-0.9v1.7h-0.9v1.7h-0.9v1.7h-0.9v1.7H468v1.7h-0.9v0.9h-0.9v1.7h-0.9v1.7h-0.9v1.7h-0.9v1.7h-0.9v0.9h-0.9v1.7H461v1.7h-0.9v0.9
	h-0.9v1.7h-0.9v0.9h-0.9v1.7h-0.9v1.7h-0.9v0.9h-0.9v1.7H454v0.9h-0.9v1.7h-0.9v0.9h-0.9v1.7h-0.9v0.9h-0.9v0.9h-0.9v0.9h-0.9v0.9
	H447v0.9h-0.9v0.9h-0.9v1.7h-0.9v0.9h-0.9v0.9h-0.9v0.9h-0.9v0.9h-0.9v0.9H440v0.9h-0.9v0.9h-0.9v0.9h-1.8v2.6h-0.9v0.9h-0.9v0.9
	h-0.9v0.9H433v0.9h-1.8v0.9h-1.8v0.9h-0.9v0.9h-0.9v0.9h-0.9v0.9H426v49.8h-0.9v7.9h-0.9v7.9h-0.9v0.9h-0.9v0.9h-1.8v0.9h-6.3v-0.9
	h-0.9v-0.9h-0.9v-0.9h-0.9v-0.9h-0.9v-0.9h-0.9v-1.7h-0.9v-1.7H408V468h0.9v-1.7h0.9v-1.7h0.9V462h0.9v-44.5h-0.9V414h-0.9v-3.5
	h-0.9v-0.9H408v-0.9h-0.9v-0.9h-0.9v-0.9H406V406h-0.9v-0.9h-2.7v-0.9H399v-0.9h-2.7v-0.9h-2.7v-0.9h-2.5v-0.9h-1.8v-0.9h-1.8V399
	h-1.8v-0.9H385v-1.7h-0.9v-1.7h-0.9V393h-0.9v-1.7h-0.9v-14.8h-0.9v-29.7h0.9v-4.4h0.9V338h0.9v-5.2h0.9v-3.5h0.9v-3.5h0.9v-3.5h0.9
	v-3.5h0.9v-3.5h0.9v-3.5h0.9v-3.5h0.9v-4.4h0.9v-2.6h0.9v-2.6h0.9v-3.5h0.9v-2.6h0.9V289h0.9v-2.6h0.9v-3.5h0.9v-2.6h0.9v-3.5h-1.8
	v-0.9h-0.9v0.9H392v0.9h-2.7v0.9h-6.1v-0.9h-2.7v-0.9h-0.9v-0.9h-0.9V275H378v-0.9h-1.8v-0.9h-1.8v-0.9h-1.8v-0.9h-4.3v-0.9h-2.7
	v-0.9h-1.8v-0.9H362V268h-1.8v-0.9h-0.9v-0.9h-1.8v-0.9h-1.8v-0.9h-1.8v-0.9H353V261h-0.9v0.9h-2.9v0.9h-0.9v0.9h-0.9v0.9h-1.8v1.7
	h-0.9v0.9H344v0.9h-0.9v1.7h-0.9v0.9h-0.9v0.9h-0.9v0.9h-2.7v0.9H337v0.9h-1.8v0.9h-0.9v0.9h-0.9v0.9h-0.9v2.6h-4.3v0.9h-0.9v0.9
	h-0.9v0.9h-1.8v0.9h-0.9v0.9H323v0.9h-0.9v0.9h-0.9v0.9h-0.9v0.9h-0.9v0.9h-0.9v0.9h0.9v0.9h-0.9v0.9h-1.8v0.9h-6.1v0.9h-0.9v3.5
	H307v-0.9h-0.9v0.9h-2.7v0.9h-6.3V296h-0.9v-1.7H296v-1.7h-0.9v-1.7h-2.7V290h-0.9v0.9h-4.3V290h-0.9v-1h-0.9v-0.9h-0.9v0.9h-3.4
	v-0.9h-0.9v-1.7h-1.8v-0.9h-1.8v-0.9h-0.9v-0.9H275v-0.9h-0.9V282h-0.9v-0.9h-0.9v-0.9h-0.9v-0.9h-1.8v-0.9H268v-16.6h0.9v-3.5h0.9
	v-2.6h0.9v-3.5h0.9v-0.9h0.9v-1.7h0.9v-1.7h0.9v-1.7h0.9v-1.7h0.9v-1.7h0.9V241h0.9v-0.9h0.9v-1.7h0.9v-1.7h0.9V235h0.9v-1.7h0.9
	v-1.7h0.9v-1.7h-3.1v1.7h-0.9v0.9h-0.9v0.9h-0.9v0.9h-0.9v1.7h-0.9v0.9H275v0.9h-0.9v0.9h-0.9v0.9h-0.9v0.9h-0.9v0.9h-0.9v0.9h-0.9
	v0.9h-0.9v0.9H268v1.7h-0.9v1.7h-0.9v1.7h-0.9v0.9h-1.8v0.9h-0.9v0.9h-0.9v0.9H261v4.4h-0.9v0.9h-1.8v-0.9h-0.9v-2.6h-7v-0.9h-1.7
	v-0.9h-1.8v-0.9H241V251h-2.7v-0.9h-1.8v-0.9h-0.9v1.7h-0.9v0.9H234v-0.9h-0.9V250h-0.9v-0.9h-6.1v-0.9h-0.9v-1.7h-0.9v-21.8h0.9
	V220h0.9v-4.4h0.9v-4.4h0.9v-2.6h0.9V206h0.9v-2.6h0.9v-2.6h0.9v-2.6h0.9v-3.5h0.9v-2.6h0.9v-2.6h0.9v-2.6h0.9v-2.6h0.9v-2.6h-3.8
	v0.9h-2.7v0.9H227v0.9h-0.9v0.9h-1.8v0.9h-1.8v0.9h-0.9v0.9H220v0.9h-1.8v0.9h-0.9v0.9h-0.9v0.9h-0.9v0.9h-0.9v0.9H213v0.9h-1.8v0.9
	h-1.8v0.9h-2.7v0.9h-2.5v0.9h-3.6v0.9h-5.4v-0.9h-2.7V197h-0.9v-0.9h-0.9v1.7h-0.9v1.7h-0.9v0.9H188v1.7h-0.9v0.9h-0.9v1.7H186v1.7
	h-0.9v0.9h-0.9v1.7h-0.9v0.9h-0.9v1.7h-0.9v0.9h-0.9v1.7h-0.9v1.7H179v0.9h-0.9v1.7h-0.9v0.9h-0.9v0.9h0.9v-0.9h0.9v-0.9h0.9v-0.9
	h0.9v-0.9h0.9V215h0.9v-0.9h0.9V213h0.9v-0.9h0.9v1.7h-0.9v1.7h-0.9v1.7h-0.9v1.7h-0.9v0.9h-0.9v1.7H179v0.9h-0.9v1.7h-0.9v1.7h-0.9
	v0.9h-0.9v1.7h-0.9v0.9h-0.9v1.7h-0.9v0.9H172v1.7h-0.9v0.9h-0.9v1.7h-0.9v0.9h2.7v-0.9h0.9v-1.7h0.9V234h0.9v-1.7h0.9v-0.9h0.9
	v-1.7h0.9v-0.9h0.9V227h0.9v-0.9h0.9v-0.9h0.9v-0.9h0.9v-0.9h0.9v-0.9h0.9v-0.9h0.9v-0.9h0.9V220h0.9v1.7h-0.9v1.7h-0.9v0.9h-0.9
	v1.7h-0.9v1.7h-0.9v0.9H181v1.7h-0.9v1.7H179v1.7h-0.9v1.7h-0.9v1.7h-0.9v1.7h-0.9v0.9h1.8v1.7h-0.9v0.9h-0.9v1.7h-0.9v0.9h-0.9v1.7
	h-0.9v0.9H172v1.7h-0.9v0.9h-0.9v1.7h-0.9v0.9h-0.9v1.7h-0.9v0.9h-0.9v1.7h-0.9v0.9H165v1.7h-0.9v0.9h-0.9v1.7h-0.9v0.9h-0.9v1.7
	h-0.9v0.9h-0.9v1.7h-0.9v0.9H158v1.7h-0.9v0.9h-0.9v0.9h-0.9v1.7h-0.9v0.9h-0.9v0.9h-0.9v0.9h-0.9v1.7H151v0.9h-0.9v0.9h-0.9v1.7
	h-0.9v0.9h-0.9v0.9h-0.9v0.9h-0.9v1.7h-0.9v0.9h-0.9v0.9h-0.9v1.7H142v0.9h-0.9v0.9h-0.9v0.9h-0.9v1.7h-0.9v0.9h-0.9v0.9h-0.9v0.9
	h-0.9V296h-0.9v-0.9h-0.9v0.9H133v0.9h-0.9v0.9h-0.9v0.9h-1.1v0.9h-0.9v-1.7h0.9v-2.6h-2.7v0.9h-1.8v0.9h-0.9v-1.7h0.9v-1.7h0.9
	v-2.6H124v1.7h-0.9v0.9h-0.9v1.7h-0.9v0.9h-0.9v0.9h-0.9v1.7h-0.9v0.9h-0.9v0.9H117v1.7h-0.9v0.9h-0.9v0.9h-0.9v1.7h-0.9v0.9h-0.9
	v1.7h-0.9v0.9h-0.9v0.9H110v1.7h-0.9v0.9h-0.9v0.9h-0.9v1.7h-0.9v0.9h-0.9v0.9h-0.9v1.7h-0.9v0.9H103v0.9h-0.9v1.7h-0.9v1.7h-0.9
	v0.9h-0.9v1.7h-0.9v1.7h-0.9v0.9h-0.9v1.7H96v1.7h-0.9v0.9h-0.9v1.7h-0.9v0.9h-0.9v1.7h-0.9v1.7h-0.9v0.9h-0.9v1.7H89v1.7h-0.9v0.9
	h-0.9v1.7h-0.9v1.7h-0.9v0.9h-0.9v1.7h-0.9v6.1h1.8v-0.9h1.8v-0.9h0.9v-3.5H89V350h0.9v-1.7h0.9v-1.7h0.9v2.6h-0.9v4.4h-0.9v3.5H89
	v3.5h-0.9v2.6h-0.9v2.6h-0.9v2.6h-0.9v2.6h-0.9v1.7h-0.9v2.6h-0.9v1.7h-0.9v1.7h-0.9v2.6H80v1.7h-0.9v1.7h-0.9v2.6h-0.9v1.7h-0.9
	v1.7H76v4.4h-0.9v3.5h-0.9v3.5h-0.9v3.5h-0.9v3.5h-0.9v2.6h-0.9v1.7h-0.9v1.7H69v1.7h-0.9v1.7h-0.9v0.9h-0.9v0.9h-0.9v0.9h-0.9v-1.7
	h0.9v-1.7h0.9v-2.6h0.9v-1.7h0.9v-1.7h-0.9v0.9h-0.9v1.7h-0.9v0.9h-0.9v3.5h-0.9v2.6h0.9v0.9h-0.9v0.9h-0.9v0.9H62v0.9h-0.9v0.9
	h-0.9v0.9h-0.9v0.9h-0.9v0.9h-0.9v0.9h-0.9v0.9h-0.9v0.9H55v0.9h-0.9v0.9h-1.8v1.7h-0.9v0.9h-0.9v1.7h-0.9v0.9h-0.9v1.7H48v0.9h-0.9
	v0.9h-0.9v-0.9h-0.9v-1.7h-0.9v1.7h-0.9v0.9h-0.9v0.9h-0.9v0.9H41V441h-4.5v1.7h-0.9v0.9h-6.1v1.7h-0.9v1.7h-0.9v-0.9h-0.9v-0.9
	h-0.9v-0.9h-1.8v-0.9h-0.9v0.9h-0.9v0.9h-2.2v-3.5H21v-4.4h-3.6v-2.6h-2.7v-3.5h-1.6v-0.9h-1.8v-0.9h-0.9v-0.9H7.9v-0.9H7v-4.4h0.9
	v-0.9h0.9v-1.7h0.9v-0.9h0.9v-0.9h0.9v-1.7h0.9v-0.9h0.9v-0.9H14v-1.7h0.9V413h0.9v-0.9h0.9v-1.7h0.9v-0.9h0.9v-0.9h0.9v-1.7h0.9
	V406H21v-0.9h0.9v-1.7h0.9v-0.9h0.9v-1.7h0.9v-0.9h0.9V399h0.9v-1.7h0.9v-0.9h0.9v-1.7h0.9v-0.9H30v-0.9h0.9v-1.7h0.9v-0.9h0.9v-1.7
	h0.9v-0.9H34v-0.9h0.9V385h0.9v-0.9h0.9v-1.7h0.9v-0.9h0.9v-0.9h0.9v-1.7h0.9V378H41v-1.7h1.8v-0.9h0.9v-0.9h1.8v-0.9h0.9v-0.9h0.9
	V371H48v-1.7h0.9v-1.7h0.9V365h0.9v-1.7h0.9v-1.7h0.9v-1.7h0.9v-2.6h0.9v-1.7H55v-1.7h0.9v-1.7h0.9v-2.6h0.9V347h0.9v-3h0.9v-2.6
	h0.9v-2.6h0.9v-2.6H62v-2.6h0.9V331h0.9v-2.6h0.9v-3.5h0.9v-2.6h0.9v-3.5h0.9V316h0.9v-3.5H69v-2.6h0.9v-3.5h0.9v-2.6h0.9v-3.5h0.9
	v-3.5h0.9v-2.6h0.9v-3.5h0.9v-2.6H76v-3.5h0.9V282h0.9v-3.5h0.9V275h0.9v-7.9h-0.9v0.9h-1.8v0.9h-2.7v0.9h-0.9v0.9h-0.9v0.9h-1.8
	v0.9h-0.9v0.9H69v0.9h-0.9v0.9h-1.8v0.9h-0.9v0.9h-0.9v0.9H62v0.9h-4.5v1.7h-0.9v0.9h-0.9v0.9H55v0.9h-0.9v0.9h-0.9v0.9h-0.9v0.9
	h-5.2V285h-0.9v-0.9h-3.6v0.9h-3.4v0.9h-4.5V285h-3.4v-0.9h-2.7v-0.9H25V282h-2.7v-0.9H21v-0.9h-1.8v-0.9h-1.8v-0.9h-1.8v-0.9H14
	v-0.9h-0.9v-0.9h-0.9V275h-0.9v-0.9h-0.9v-0.9H9.6v-0.9H8.7v-0.9H7.9v-0.9H7v-0.9H6.1V268H5.2v-1.7H4.4v-1.7H3.5v-1.7H2.6V261H1.7
	v-5.2H0.9v-5.2H0v-21h0.9v-5.2h0.9v-5.2h0.9V214h0.9v-3.5h0.9V207h0.9v-3.5h0.9v-4.4H7v-1.7h0.9v-2.6h0.9v-2.6h0.9v-2.6h0.9v-1.7
	h0.9v-2.6h0.9v-2.6h0.9v-2.6H14v-2.6h0.9v-1.7h0.9v-1.7h0.9V172h0.9v-1.7h0.9v-1.7h0.9v-1.7h0.9V165H21v-1.7h0.9v-1.7h0.9v-1.7h0.9
	V158h0.9v-2.6h0.9v-0.9h0.9v-1.7h0.9v-0.9h0.9v-1.7h0.9v-0.9H30v-1.7h0.9v-1.7h0.9V145h0.9v-1.7h0.9v-0.9H34v-1.7h0.9v-0.9h0.9v-1.7
	h0.9v-0.9h0.9v-1.7h0.9v-0.9h0.9v-0.9h0.9v-0.9H41v-0.9h0.9V131h0.9v-1.7h0.9v-0.9h0.9v-0.9h0.9v-0.9h0.9v-0.9h0.9v-0.9H48v-1.7h0.9
	v-0.9h0.9v-0.9h0.9v-0.9h0.9v-0.9h0.9v-0.9h0.9V117H55v-0.9h0.9v-0.9h0.9v-0.9h0.9v-0.9h0.9v-0.9h0.9v-0.9h0.9v-0.9h0.9V110H62v-0.9
	h0.9v-0.9h0.9v-0.9h0.9v-0.9h0.9v-0.9h1.8v-0.9H69v-0.9h0.9V103h1.8v-0.9h0.9v-0.9h1.8v-0.9H76v-0.9h0.9v-0.9h1.8v-0.9h0.9v-0.9h2.7
	V96H85v-0.9h2.7v-0.9h2.2v-0.9h2.7v-0.9h2.7v-0.9h3.4v-0.9h4.5v-0.9h7.2v-0.9h2.7v1.7h0.9v1.7h0.9v4.4h0.9v4.4h0.9v0.9h1.8v0.9h1.8
	v-0.9h0.9V101h0.9v-0.9h0.9v-1.7h0.9v-14h0.9v-1.7h0.9V81h0.9v1.7h0.9v1.7h0.9v1.7h0.9V87h0.9v1.7h0.9v0.9h0.9v0.9h0.9v0.9h0.9v0.9
	h0.9V94h0.9v0.9h0.9V96h1.8v2.6h0.9v0.9h0.9v1.7h0.9v1.7h0.9v1.7h7.2v-0.9h0.9v3.5h0.9v3.5h0.9V110h0.9v-0.9h0.9v-0.9h0.9v7.9h-0.9
	v7.9H151v3.5h-0.9v3.5h-0.9v2.6h-0.9v3.5h-0.9v2.6h-0.9v2.6h-0.9v1.7h-0.9v2.6h-0.9v1.7h-0.9v2.6H142v1.7h-0.9v1.7h-0.9v1.7h-0.9
	v1.7h-0.9v1.7h-0.9v1.7h-0.9v1.7h-0.9v1.7h-0.9v1.7h-0.9v1.7H133v5.2h-0.9v5.2h-0.9v4.4H131v5.2h-0.9v5.2h-0.9v4.4h-0.9v5.2h-0.9
	v5.2h-0.9v4.4h-0.9v4.4h-0.9v4.4H124v4.4h-0.9v4.4h-0.9v4.4h-0.9v4.4h-0.9v4.4h-0.9v4.4h-0.9v4.4h-0.9v5.2h2.7v-0.9h0.9v-0.9h0.9
	v-0.9h0.9v-0.9h0.9v-1.7h0.9v-1.7h0.9v-1.7h0.9v-0.9h0.9v-0.9h0.9v-1.7h1.8V244h1.8v-0.9h0.9v-0.9h0.9v-4.4h0.9v0.9h2.7v-0.9h0.9
	v-0.9h0.9V236h0.9v-1.7h0.9v-4.4h0.9V229h1.8v-0.9h0.9v-0.9h0.9v-3.5h1.8v-0.9h2.7v-0.9h0.9V221h0.9v-1h0.9v-1.7h0.9v-0.9h0.9v-1.7
	h0.9V214h2.7v-1h4.5v-2.6h1.8v-0.9h0.9v-0.9h1.8v-0.9h0.9v-6.1h0.9v-1.7h0.9v-2.6h0.9v-0.9h0.9v-5.2h-0.9v-2.6h-0.9v-3.5H169v-2.6
	h-0.9v-20.1h0.9v-3.5h0.9v-3.5h0.9V151h0.9v-3.5h0.9V144h0.9v-4.4h0.9V137h0.9v-2.6h0.9v-2.6h0.9v-2.6h0.9v-3.5h0.9v-2.6h0.9v-2.6
	h0.9v-2.6h0.9v-3.5h0.9v-1.7h0.9V111h0.9v-2.6h0.9v-1.7h0.9V105h0.9v-2.6h0.9v-0.9h0.9v-1.7h0.9v-0.9h0.9v-1.7h0.9v-1.7h0.9v-0.9
	h0.9v-1.7h0.9v-1.7h0.9v-0.9h0.9v-1.7h0.9v-0.9h0.9V86h0.9v-1.7h0.9v-0.9h0.9v-1.7h0.9V80h0.9v-0.9h0.9v-0.9h0.9v-0.9h0.9V76h0.9
	v-0.9h0.9v-0.9h0.9v-0.9h0.9v-0.9h0.9v-0.9h0.9v-0.9h0.9v-0.9h3.6V69h1.8v-0.9h0.9v-0.9h0.9v-0.9h0.9v-0.9h0.9v-0.9h0.9v-0.9h0.9
	v-0.9h0.9V62h0.9v-4.4h-4.8v-0.9h-0.9v-0.9h-0.9v0.9h-2.7v0.9H213v-0.9h0.9v-0.9h1.8V55h0.9v-0.9h2.7V55h2.7v0.9h1.8V55h0.9v-0.9
	h0.9v2.6h0.9v1.7h0.9V61h0.9v1.7h0.9v27.1h-0.9v3.5H227v3.5h-0.9v2.6h-0.9v3.5h-0.9v3.5h-0.9v2.6h-0.9v3.5h-0.9v3.5h-0.9v2.6H220
	v3.5h-0.9v2.6h-0.9v2.6h-0.9v2.6h-0.9v2.6h-0.9v2.6h-0.9v1.7h-0.9v1.7H213v1.7h-0.9v1.7h-0.9v1.7h-0.9v1.7h2.7v-0.9h0.9v-0.9h0.9
	v-0.9h0.9v-0.9h0.9V140h0.9v-1.7h0.9v-1.7h0.9v-1.7h0.9v-1.7h0.9V131h0.9v-0.9h0.9v-0.9h0.9v-0.9h0.9v-0.9h0.9v-1.7h0.9v3.5h-0.9
	v2.6h-0.9v6.1h0.9v0.9h2.7v-0.9h0.9V137h0.9v-1.7h0.9v-0.9h0.9v-1.7h1.8v-0.9h0.9V131h0.9v-0.9h0.9v-0.9h0.9v-0.9h0.9v-0.9h0.9v1.7
	h-0.9v2.6h1.8V131h0.9v-0.9h1.8v-0.9h0.9v-0.9h1.7v-0.9h0.9v-0.9h0.9v-0.9h1.8v-0.9h0.9V124h1.7v-0.9h0.9v-0.9h1.7v-0.9h0.9v-0.9
	h0.9v-0.9h1.7v-0.9h0.9v-0.9h1.8V117h0.9v-0.9h1.8v-0.9h0.9v-0.9h0.9v-0.9h1.8v-0.9h0.9v-0.9h1.8v-0.9h0.9V110h1.8v-0.9h0.9v-0.9
	h0.9v-0.9h3.6v-0.9h0.9v-0.9h0.9v-0.9h0.9v-0.9h2.7V103h0.9v-4.4h0.9V96H282v-0.9h2.7V96h1.8v0.9h2.7v0.9h2.7v1.7H291v0.9h-0.9v2.6
	h0.9v0.9h0.9v0.9h0.9v0.9h2.7v2.6h6.3v-0.9h1.8v1.7h-0.9v5.2h0.9v0.9h0.9v0.9h1.8v1.7h0.9v3.5h-0.9v1.7h-0.9v1.7h-0.9v1.7h-0.9v0.9
	h-0.9v1.7h-0.9v1.7h-0.9v1.7H300v1.7h-0.9v0.9h-0.9v1.7h-0.9v1.7H296v1.7h-0.9v1.7h-0.9v1.7h-0.9v1.7h-0.9v1.7h-0.9v1.7h-0.9v1.7
	h-0.9v2.6H289v1.7h-0.9v1.7h-0.9v1.7h-0.9v1.7h-0.9v1.7h-0.9v1.7h-0.9v1.7h-0.9v1.7H282v1.7h-0.9v1.7h-0.9v0.9h-0.9v1.7h-0.9v0.9
	h-0.9v1.7h-0.9v0.9h-0.9v1.7H275v0.9h-0.9v1.7h-0.9v0.9h-0.9v2.6h-0.9v2.6h-0.9v1.7h-0.9v3.5h-0.9v3.5H268v3.5h-0.9v3.5h-0.9v1.7
	h-0.9v1.7h-0.9v1.7h-0.9v0.9h-0.9v7.9h0.9v0.9h0.9v-1.7h0.9v1.7h0.9v0.9h0.9v2.6h-0.9v1.7h-0.9v1.7h0.9v0.9h4.5v-0.9h1.8v-0.9h1.8
	V222h2.7v-0.9h2.7v-0.9h2.7v-0.9h2.7v3.5h1.8v-0.9h0.9V221h0.9v-1.7h0.9v0.7h0.9v-1.7h0.9v-0.9h0.9v-0.9h0.9v-1.7h0.9v-0.9h0.9v-1.7
	h0.9v-0.9h0.9v-0.9h0.9v-1.7h0.9v-0.9h0.9V206h0.9v-0.9h0.9v-0.9h0.9v-1.7h0.9v-0.9h0.9v-1.7h0.9V199h0.9v-0.9h0.9v-1.7h0.9v-0.9
	h0.9v-1.7h0.9v-0.9h0.9v-1.7h0.9v-0.9h0.9v-0.9h0.9v-0.9h0.9v-0.9h0.9V186h0.9v-0.9h0.9v-0.9h0.9v-0.9h0.9v-0.9h0.9v-1.7h0.9v-0.9
	h0.9V179h0.9v-0.9h0.9v-0.9h0.9v-1.7h0.9v-0.9h0.9v-0.9h0.9v-0.9h0.9V172h0.9v-1.7h0.9v-0.9h0.9v-0.9h0.9v-0.9h0.9v-0.9h0.9V165h0.9
	v-0.9h0.9v-0.9h0.9v-0.9h0.9v-0.9h0.9v-1.7h0.9v-0.9h0.9V158h0.9v-0.9h0.9v-0.9h0.9v-0.9h0.9v-0.9h0.9v-0.9h0.9v-0.9h0.9v-0.9h0.9
	V151h0.9v-0.9h0.9v-0.9h0.9v-0.9h0.9v-0.9h0.9v-0.9h0.9v-0.9h0.9v-0.9h0.9v-0.9h0.9v-0.9h0.9V142h0.9v-0.9h0.9v-0.9h0.9v-0.9h0.9
	v-0.9h0.9v-0.9h0.9v-0.9h0.9v-0.9h0.9v-0.9h0.9v-0.9h0.9V133h0.9v-0.9h0.9v-0.9h0.9V131h0.9v-0.9h1.8v-0.9h0.9v-0.9h0.9v-0.9h0.9
	v-0.9h0.9v-0.9h1.8v-0.9h0.9V124h0.9v-0.9h0.9v-0.9h0.9v-0.9h1.8v-0.9h0.9v-0.9h0.9v-0.9h0.9v-0.9h0.9V117h1.8v-0.9h0.9v-0.9h0.9
	v-0.9h0.9v-0.9h0.9v-0.9h1.8v-0.9h0.9v-0.9h0.9V110h0.9v-0.9h0.9v-0.9h1.8v-0.9h0.9v-0.9h0.9v-0.9h0.9v-0.9h0.9v1.7h-0.9v3.5h0.9
	v-0.9h1.8V108h0.9v-0.9h0.9v-0.9h0.9v-0.9h1.8v-0.9h0.9v-0.9h0.9v0.9h1.8v0.9h0.9v0.9H406v0.9h-0.9v0.9h-0.9v0.9h-1.8v0.9h-0.9v0.9
	h-0.9v0.9h-0.9v0.9h-1.6v1.7h-0.9v0.9h-0.9v0.9h-0.9v0.9h-0.9v1.7h-0.9v1.7h-0.9v1.7H392v0.9h-0.9v0.9h-0.9v0.9h-0.9v2.6h0.9v1.7
	h-0.9v5.2h-0.9v2.6h-0.9v2.6h-0.9v2.6h-0.9v1.7H385v0.9h-0.9v0.9h-0.9v0.9h-0.9v0.9h-0.9v0.9h-0.9v0.9h-0.9v0.9h-0.9v0.9H378v0.9
	h-0.9v0.9h-0.9v0.9h-0.9v0.9h-0.9v0.9h-0.9v0.9h-0.9v1.7h-0.9v0.9H371v0.9h-0.9v0.9h-0.9v0.9h-0.9v0.9h-0.9v0.9h-0.9v0.9h-0.9v0.9
	h-0.9v0.9h-0.9v0.9h-0.9v0.9H362v0.9h-0.9v0.9h-0.9v0.9h-0.9v1.7h-0.9v0.9h-0.9v0.9h-0.9v0.9h-0.9v0.9h-0.9v0.9h-0.9v0.9H353v1.7
	h-0.9v0.9h-0.9v0.9H351v0.9h-0.9v0.9h-0.9v0.9h-0.9v0.9h-0.9v0.9h-0.9v1.7h-0.9v0.9h-0.9v0.9H344v1.7h-0.9v0.9h-0.9v0.9h-0.9v1.7
	h-0.9v0.9h-0.9v0.9h-0.9v1.7h-0.9v0.9H337v0.9h-0.9v0.9h-0.9v1.7h-0.9v0.9h-0.9v1.7h-0.9v0.9h-0.9v1.7h-0.9v0.9H330v1.7h-0.9v0.9
	h-0.9v1.7h-0.9v0.9h-0.9v1.7h-0.9v0.9h-0.9v2.6h-0.9v1.7H323v1.7h-0.9v1.7h-0.9v1.7h-0.9v1.7h-0.9v1.7h-0.9v1.7h-0.9v1.7h-0.9v1.7
	H316v1.7h-0.9v0.9h-0.9v0.9h-0.9v0.9h-0.9v0.9h-0.9v4.4h-0.9v3.5h-0.9v5.2h0.9v0.9h0.9v-0.9h0.9v-0.9h0.9v-0.9h0.9v-0.9h0.9v-0.9
	h0.9V248h0.9v-1.7h0.9v-0.9h0.9v-0.9h0.9v-0.9h0.9v-0.9h0.9v-0.9h0.9v-1.7h0.9v-0.9h0.9v-0.9h0.9v-1.7h0.9v-0.9h0.9v-0.9h0.9v-1.7
	h0.9v-0.9h0.9v-0.9h0.9v-1.7h0.9v-0.9h0.9v-0.9h0.9v-1.7h0.9v-0.9h0.9v-0.9h0.9v-0.9h0.9v-0.9h0.9v-0.9h0.9v-0.9h0.9V219h0.9v-0.9
	h0.9v-0.9h0.9v-0.9h0.9v-0.9h0.9v-0.9h0.9V213h0.9v-0.9h0.9v-0.9h0.9v-1.7h0.9v-0.9h0.9v-0.9h0.9V206h0.9v-0.9h0.9v-0.9h0.9v-1.7
	h0.9v-0.9h0.9v-0.9h0.9V199h2.7v-0.9h1.8v-0.9h0.9v-0.9h0.9v-0.9h0.9v-0.9h0.9v-0.9h0.9v-0.9h0.9V191h0.9v-0.9h0.9v-1.7h0.9v-0.9
	h0.9v-6.1h1.8v8.7h0.9v-0.9h0.9v-0.9h0.9v-1.7h0.9V184h-0.9v-1.7h0.9v-0.9h0.9v-0.9h0.9v-0.9h0.9v-1.7h0.9v-5.2h0.9v-5.2h0.9v-0.9
	h0.9v-0.9h0.9V165h0.9v-1.7h0.9v-0.9h0.9v-1.7h0.9V159h0.9v-1.7h0.9v-1.7h0.9v-1.7h0.9v-1.7h0.9v-1.7h0.9v-1.7h0.9v-1.7h0.9v-1.7
	h0.9v-1.7h0.9V142h0.9v-1.7h0.9v-1.7h0.9V136h0.9v-0.9h0.9v-0.9h0.9v-0.9h0.9v-0.9h0.9V131h0.9v-0.9h0.9v-0.9h0.9v-0.9h0.9v-0.9h0.9
	v-0.9h0.9v-0.9h0.9v-0.9h2.7V124h2.7v-0.9h0.9v6.1h0.9v0.9h0.9v0.9h0.9v15.7h-0.9v2.6H415v2.6h-0.9v17.5h-0.9v2.6h-0.9v2.6h-0.9v2.6
	h-0.9v2.6h-0.9v2.6H406v2.6h-0.9v2.6h-0.9v2.6h-0.9v2.6h-0.9v2.6h-0.9v2.6h-0.9v3.5h-0.9v2.6H399v3.5h-0.9v2.6h-0.9v2.6h-0.9v3.5
	h-0.9v2.6h-0.9v2.6h-0.9v3.5h-0.9v2.6H392v2.6h1.8v-0.9h1.8v-0.9h2.7v-0.9h2.7V227h1.8v-0.9h0.9v-0.9h0.9v-0.9h0.9v-0.9h0.9v-0.9
	h0.9v-0.9h0.9v-0.9h0.9V220h0.9v-0.9h0.9v-0.9h0.9v-0.9h0.9v-0.9h0.9v-0.9h0.9v-0.9h0.9v-0.9h0.9V213h0.9v-0.9h0.9v-0.9h0.9v-0.9
	h0.9v-0.9h0.9v-0.9h0.9v-0.9h0.9v-0.9h0.9V205h0.9v-0.9h0.9v-0.9h0.9v-0.9h0.9v-0.9h0.9v-0.9h0.9v-0.9h0.9v-0.9h0.9v-0.9h0.9v-0.9
	h0.9V196h0.9v-0.9h0.9v-0.9h0.9v-0.9h0.9v-0.9h0.9v-1.7h0.9v-0.9h0.9v-0.9h0.9V188h0.9v-0.9h0.9v-0.9h0.9V186h0.9v-0.9h0.9v-1.7h0.9
	v-0.9h0.9v-1.7h0.9v-0.9h0.9v-1.7h0.9v-0.9h0.9v-1.7h0.9v-0.9h0.9V173h0.9v-1.7h0.9v-1.7h0.9v-1.7h0.9V165h0.9v-2.6h0.9v-3.5h0.9
	v-2.6h0.9v-2.6h0.9V151h0.9v-2.6h0.9v-2.6h0.9v-3.5h0.9v-2.6h0.9v-2.6h0.9v-2.6h0.9v-2.6h0.9v-2.6h0.9v-2.6h0.9v-0.9h0.9V124h0.9
	v-1.7h0.9v-1.7h0.9v-1.7h0.9V117h0.9v-0.9h0.9v-1.7h0.9v-0.9h0.9v-1.7h0.9v-0.9h0.9v-1.7h0.9v-1.7h0.9v-0.9h0.9v-0.9h0.9V104h0.9v-1
	h0.9v-0.9h0.9v-1.7h0.9v-0.9h0.9v-0.9h0.9v-1.7h0.9V96h0.9v-0.9h0.9v-1.7h0.9v-0.9h0.9v-0.9h0.9v-1.7h1.8V89h0.9v-0.9h0.9v-0.9h0.9
	v-1.7h0.9v-2.6h0.9v-1.7h0.9v-1.7h1.8v-0.9h0.9v-0.9h0.9v-0.9h0.9v0.9h0.9v0.9h0.9v2.6h1.8v-0.9h0.9v-0.9h0.9v-0.9h0.9v-0.9h0.9
	v-0.9h0.9V76h0.9v-0.9h0.9v-0.9h0.9v-0.9h0.9v-0.9h0.9v-0.9h1.8v-0.9h0.9v-0.9h0.9V69h0.9v-0.9h0.9v-0.9h0.9v-0.9h0.9v-0.9h0.9v-0.9
	h0.9v-0.9h0.9v-0.9h0.9V62h3.6v-0.9h0.9v-1.7h-0.9v-0.9h0.9v-0.9h0.9v-0.9h1.8v-0.9h0.9V55h1.8v-0.9h0.9v-0.9h0.9v0.9h0.9v1.7h-0.9
	V62h0.9v3.5h-0.9v6.1h0.9v0.9h0.9v0.9h2.7v0.9h1.8v0.9h1.8v3.5h0.9v7h1.8v-0.9h0.9v-0.9h0.9v4.4h-0.9v4.4h-0.9v5.2h-0.9v5.2h-0.9
	v2.6H543v1.7h-0.9v1.7h-0.9v1.7h-0.9v1.7h-0.9v1.7h-0.9v1.7h-0.9v2.6h-0.9v1.7h-0.9v1.7h-0.9v1.7H534v1.7h-0.9v1.7h-0.9v1.7h-0.9
	v1.7h-0.9v0.9h-0.9v1.7h-0.9v0.9h-0.9v1.7h-0.9v0.9h-0.9v1.7H525v0.9h-0.9v0.9h-0.9v1.7H523v0.9h-0.9v1.7h-0.9v0.9h-0.9v1.7h-0.9
	v0.9h-0.9v0.9h-0.9v1.7h-0.9v0.9H516v1.7h-0.9v0.9h-0.9v1.7h-0.9v0.9h-0.9v4.4h0.9v3.5h0.9v3.5h0.9v3.5h0.9v2.6h0.9v19.2h0.9v0.9
	h1.8v4.4h0.9v0.9h5.4v-0.9h9v-0.9h1.8v-0.9h1.8v-0.9h1.8v-0.9h1.8V194h1.8v-0.9h1.8v-0.9h0.9v-0.9h0.9v-0.9h1.8v-0.9h0.9v-0.9h0.9
	v-0.9h1.7v-0.9h0.9v-0.9h0.9v0.1h2.6v-0.9h1.7v-0.9h0.9v-0.9h0.9v-0.9h0.9v-1.7h0.9v-0.9h0.9v-1.7h0.9v-1.7h0.9v-1.7h0.9V173h0.9
	v-1.7h0.9v-1.7h0.9v-1.7h0.9v-1.7h0.9v-1.7h0.9v-1.7h0.9v-2.6h0.9V158h0.9v-1.7h0.9v-2.6h0.9V152h0.9v-1.7h0.9v-2.6h0.9V146h0.9
	v-1.7h0.9v-2.6h0.9V140h0.9v-2.6h0.9v-0.9h0.9v-1.7h0.9v-1.7h0.9V131h0.9v-1.7h0.9v-1.7h3.6v-0.9h0.9v-0.9h0.9v-0.9h0.9V124h1.8
	v-0.9h0.9v-0.9h2.7v-0.9h1.8v-0.9h1.8v-0.9h1.8v-0.9h0.9v-0.9h0.9V117h0.9v-0.9h0.9v-0.9h0.9v-0.9h0.9v-0.9h1.8v-0.9h2.7v3.5h0.9
	v-0.9h0.9v-0.9h0.9v-0.9h0.9v-0.9h0.9v-0.9h0.9v-0.9h0.9V110h0.9v-0.9h0.9v1.7h0.9v0.9h0.9v3.5h0.9v7h0.9v-0.9h1.8v-0.9h1.8v-0.9
	h1.8v1.7h-0.9v9.6H630v1.7h-4v1.7h-0.9v0.9h-0.9v1.7h-0.9v1.7h-0.9v0.9h-0.9v1.7h-0.9v1.7h-0.9v0.9H619v1.7h-0.9v0.9h-0.9v2.6h-0.9
	v1.7h-0.9v2.6h-0.9v1.7h-0.9v1.7h-0.9v2.6H612v1.7h-0.9v1.7h-0.9v2.6h-0.9v1.7h-0.9v2.6h-0.9v1.7h-0.9v2.6h-0.9v1.7H605v2.6h-0.9
	v1.7h-0.9v2.6h-0.9v1.7h-0.9v2.6h-0.9v1.7h-0.9v1.7h-0.9v2.6H598v1.7h-0.9v1.7h-0.9v3.5h-0.9v2.6h-0.9v2.6h-0.9v2.6h-0.9v2.6h-0.9
	v2.6h-0.9v2.6h-0.9v2.6H589v2.6h-0.9v2.6h-0.9v2.6h-0.9v3.5h-0.9v2.6h-0.9v3.5h-0.9v2.6h-0.9v2.6h-0.9v5.2h-0.9v5.2H580v5.2h3.6
	v-0.9h0.9v-0.9h0.9v-0.9h0.9v-0.9h0.9v-0.9h0.9v-0.9h0.9v-0.9h0.9v-0.9h1.8v-0.9h0.9V247h0.9v-0.9h0.9v-0.9h0.9v-0.9h0.9v-0.9h0.9
	v-0.9h0.9v-0.9h0.9v-0.9h1.8v-0.9h0.9v1.2h0.9v-0.9h0.9v-0.9h0.9v-0.9h0.9v-0.9h0.9v-0.9h0.9v-0.9h0.9v-0.9h1.8V234h0.9v-0.9h0.9
	v-0.9h0.9v-0.9h0.9v-0.9h0.9v-0.9h0.9v-0.9h0.9v-0.9h0.9V227h1.8v-0.9h0.9v-0.9h0.9v-0.9h0.9v-0.9h0.9v-0.9h0.9v-0.9h0.9v-0.9h0.9
	V220h0.9v-0.9h1.8v-0.9h0.9v-0.9h0.9v-0.9h0.9v-0.9h0.9v-0.9h0.9v-0.9h0.9V213h0.9v-0.9h0.9v-0.9h0.9v-0.9h0.9v-0.9h0.9v-0.9h0.9
	v-0.9h0.9v-0.9h0.9V206h1.8v-0.9h0.9v-0.9h0.9v-0.9h0.9v-0.9h0.9v-0.9h0.9v-0.9h0.9v-0.9h0.9v-0.9h0.9v-0.9h0.9V197h0.9v-0.9h0.9
	v-0.9h0.9v-0.9h0.9v-0.9h0.9v-0.9h1.8v-0.9h0.9v-0.9h0.9v-0.9h0.9v-0.9h0.9V188h0.9v-0.9h0.9v-0.9h0.9V186h0.9v-0.9h0.9v-0.9h0.9
	v-0.9h0.9v-0.9h0.9v-0.9h0.9v-0.9h0.9v-0.9h1.8V179h0.9v-0.9h0.9v-0.9h0.9v-0.9h0.9v-0.9h0.9v-0.9h0.9v-0.9h0.9v-0.9h0.9V172h0.9
	v-0.9h0.9v-0.9h1.8v-0.9h0.9v-0.9h0.9v-0.9h0.9v-0.9h0.9v-0.9h0.9V165h0.9v-0.9h0.9v-0.9h0.9v-0.9h0.9v-0.9h0.9v-0.9h1.8v-0.9h0.9
	v-0.9h0.9V158h0.9v-0.9h0.9v-0.9h1.8v-0.9h0.9v-0.9h0.9v-0.9h0.9v-0.9h0.9v-0.9h1.8V151h0.9v-0.9h0.9v-0.9h0.9v-0.9h0.9v-0.9h1.8
	v-0.9h0.9v-0.9h0.9v-0.9h0.9v-0.9h0.9v-0.9h0.9V142h1.8v-0.9h0.9v-0.9h1.8v-0.9h0.9v-0.9h0.9v-0.9h1.8v-0.9h0.9v-0.9h0.9v-0.9h1.8
	v-0.9h0.9V133h1.8v-0.9h0.9v-0.9h0.9V131h1.8v-0.9h0.9v-0.9h0.9v-0.9h1.7v-0.9h0.9v-0.9h0.9v-0.9h1.7v-0.9h0.9V124h1.8v-0.9h0.9
	v-0.9h1.7v-0.9h0.9v-0.9h1.8v-0.9h0.9v-0.9h0.9v-0.9h1.7V117h0.9v-0.9h1.8v-0.9h0.9v-0.9h1.8v-0.9h0.9v-0.9h1.8v-0.9h0.9v-0.9h0.9
	V110h2.7v-0.9h1.8v-0.9h1.8v-0.9h1.8v-0.9h3.6v-0.9h6.3v-0.9h0.9v-0.9h4.5V103h0.9v-0.9h0.9v-1.7h1.8v-0.9h0.9v0.9h1.8v1.7h-0.9v0.9
	h-0.9v0.9h-0.9v0.9h4.5v-0.9h0.9V103h0.9v-0.9h3.6v-0.9h0.9v1.7h0.9v0.9h0.9v0.9h0.9v6.1h0.9v6.1h-0.9v2.6h-0.9v9.6h-0.9v1.7h-0.9
	v2.6H791v1.7h-0.9v2.6h-0.9v1.7h-0.9v1.7h-0.9v2.6h-0.9v1.7h-0.9v2.6h-0.9v1.7H784v1.7h-0.9v2.6h-0.9v1.7h-0.9v2.6h-0.9v1.7h-0.9
	v1.7h-0.9v2.6h-0.9v1.7H777v1.7h-0.9v1.7h-0.9v2.6h-0.9v1.7h-0.9v1.7h-0.9v1.7h-0.9v1.7h-0.9v2.6H770v1.7h-0.9v1.7h-0.9v1.7h-0.9
	v2.6h-0.9v1.7h-0.9v1.7h-0.9v1.7h-0.9v1.7H763v2.6h-0.9v2.6h-0.9v2.6h-0.9v1.7h-0.9v9.6h-0.9v2.6h-0.9v2.6h-0.9v2.6h-0.9v2.6h-0.9
	v2.6H754v2.6h-0.9v2.6h-0.9v2.6h-0.9v2.6h-0.9v1.7h-0.9v3.5h-0.9v3.5h-0.9v3.5h-0.9v2.6h-0.9v7H745v7.9h0.9v0.9h0.9v0.9h0.9v0.9h5.4
	v-0.9h2.7V269h0.9v-0.9h0.9v-0.9h0.9v0.8h0.9v-0.9h0.9v-0.9h0.9v-0.9h0.9v-1.7h0.9v-1.7h1.8V261h1.8v-0.9h0.9v-0.9h0.9v-0.9h0.9
	v-0.9h0.9v-0.9h0.9v-0.9h0.9v-0.9h0.9V253h1.8v-0.9h1.8v-0.9h0.9v-0.9h0.9v-0.9h0.9v-0.9h0.9v-0.9h0.9v-0.9h0.9V245h0.9v-1.7h0.9
	v-0.9h0.9v-0.9h0.9V241h0.9v-0.9h4.5v-0.9h3.6v-0.9h0.9v-0.9h0.9v-0.9h0.9v-0.9h1.8v-0.9h0.9V234h1.8v-0.9h0.9v-0.9h0.9v10.5h-0.9
	v2.6h-0.9v2.6h-0.9v2.6h-0.9v4.4h0.9v0.9h1.8v4.4h-0.9v3.5h0.9v0.9h2.7h-0.4L804.9,264.5z"/>
</svg>
