<?xml version="1.0" encoding="utf-8"?>
<!-- Generator: Adobe Illustrator 27.0.1, SVG Export Plug-In . SVG Version: 6.00 Build 0)  -->
<svg version="1.1" id="Layer_1" xmlns="http://www.w3.org/2000/svg" xmlns:xlink="http://www.w3.org/1999/xlink" x="0px" y="0px"
	 viewBox="0 0 558.7 136" style="enable-background:new 0 0 558.7 136;" xml:space="preserve">
<style type="text/css">
	.st0{fill:#1D1E1C;}
	.st1{clip-path:url(#SVGID_00000145748408118070738900000007057787374436364431_);fill:#1D1E1C;}
</style>
<g>
	<g>
		<g>
			<g>
				<path id="SVGID_1_" class="st0" d="M59.3,40.1c0,7.1-5.4,12.1-15.5,12.1H28.7v-24h15.1C53.9,28.3,59.3,33,59.3,40.1L59.3,40.1
					L59.3,40.1z M91.6,112.9L64.8,68.8c10.9-5.3,18.7-14.9,18.7-29.7c0-21.7-17.8-34.4-38.9-34.4h-40V113h24V74H41l23.6,39h27V112.9
					L91.6,112.9z M151.5,66h-34.9c1.1-6.7,7.7-13.8,17.5-13.8C144,52.2,150.6,59.2,151.5,66L151.5,66L151.5,66z M172.8,81.8
					c0.3-1.8,0.5-5.5,0.5-8.2c0-22.1-16.1-40.5-39.8-40.5c-23.1,0-39.9,18.2-39.9,40.7c0,25.6,19.6,41.3,40.7,41.3
					c14.2,0,27.2-7.6,34.9-18.7L151,87c-3.8,4.5-9,8-16.4,8c-9.3,0-16.2-5.6-17.5-13.2H172.8L172.8,81.8L172.8,81.8z M235.1,83.3
					c0,2.3,0,3.2-1.1,5.2c-2.9,5.3-11.6,7.9-17,7.9c-5.8,0-11.2-1.8-11.2-7.3c0-7,8.4-8.5,14.7-9.9c7-1.5,9.8-2,14.5-2.9v7
					L235.1,83.3L235.1,83.3z M235,112.9h21.9V64.7c0-15.9-10.4-31.7-34.8-31.7c-22,0-33.2,12.9-36.1,22.1l21,4.1
					c1.8-3.5,6.9-7.1,14.1-7.1c8.7,0,13.9,4.5,13.9,9.3c-4.6,0.6-22.8,3.6-27.6,4.6c-13.9,2.7-24.6,10.5-24.6,25.2
					c0,13.3,11.8,23.7,27.1,23.7c10.6,0,17.8-3.6,24-9.9h1.1V112.9L235,112.9L235,112.9z M320.9,66.4l28.9-31.1h-28.3l-24.9,26.2
					v-56h-22.5v107.6h22.5V92.8l8.4-9.1l0.1-0.2l29.1,47.9h26.6L320.9,66.4L320.9,66.4L320.9,66.4z M385.3,115.2
					c9.3,0,17.2-2.3,19.5-3v-19c-1.4,0.5-7.4,1.5-12.6,1.5c-7.3,0-10.6-4.9-10.6-12.1V53.9h21.8V35.5h-21.8V15.8h-22.5V89
					C359.1,104.7,370.2,115.2,385.3,115.2L385.3,115.2L385.3,115.2z M473.4,73.5c0,13.2-8.4,21.5-19.2,21.5
					c-10.8,0-19.2-8.3-19.2-21.5c0-13,9.2-20.9,19.2-20.9C464.3,52.6,473.4,60.5,473.4,73.5L473.4,73.5L473.4,73.5z M495.3,73.5
					c0-22.7-18-40.5-41.1-40.5c-22.9,0-41.1,17.9-41.1,40.5c0,25.9,20,41.3,41.1,41.3C475.4,114.8,495.3,99.4,495.3,73.5L495.3,73.5
					L495.3,73.5z M554.1,56.1V33c-11,0-20.8,6.8-23.7,11.3v-9.1H508v77.5h22.4V75.2C530.5,62.5,540.1,56.1,554.1,56.1L554.1,56.1
					L554.1,56.1z"/>
			</g>
		</g>
		<g>
			<g>
				<path id="SVGID_00000071555080602070442770000008433938768956231842_" class="st0" d="M59.3,40.1c0,7.1-5.4,12.1-15.5,12.1H28.7
					v-24h15.1C53.9,28.3,59.3,33,59.3,40.1L59.3,40.1L59.3,40.1z M91.6,112.9L64.8,68.8c10.9-5.3,18.7-14.9,18.7-29.7
					c0-21.7-17.8-34.4-38.9-34.4h-40V113h24V74H41l23.6,39h27V112.9L91.6,112.9z M151.5,66h-34.9c1.1-6.7,7.7-13.8,17.5-13.8
					C144,52.2,150.6,59.2,151.5,66L151.5,66L151.5,66z M172.8,81.8c0.3-1.8,0.5-5.5,0.5-8.2c0-22.1-16.1-40.5-39.8-40.5
					c-23.1,0-39.9,18.2-39.9,40.7c0,25.6,19.6,41.3,40.7,41.3c14.2,0,27.2-7.6,34.9-18.7L151,87c-3.8,4.5-9,8-16.4,8
					c-9.3,0-16.2-5.6-17.5-13.2H172.8L172.8,81.8L172.8,81.8z M235.1,83.3c0,2.3,0,3.2-1.1,5.2c-2.9,5.3-11.6,7.9-17,7.9
					c-5.8,0-11.2-1.8-11.2-7.3c0-7,8.4-8.5,14.7-9.9c7-1.5,9.8-2,14.5-2.9v7L235.1,83.3L235.1,83.3z M235,112.9h21.9V64.7
					c0-15.9-10.4-31.7-34.8-31.7c-22,0-33.2,12.9-36.1,22.1l21,4.1c1.8-3.5,6.9-7.1,14.1-7.1c8.7,0,13.9,4.5,13.9,9.3
					c-4.6,0.6-22.8,3.6-27.6,4.6c-13.9,2.7-24.6,10.5-24.6,25.2c0,13.3,11.8,23.7,27.1,23.7c10.6,0,17.8-3.6,24-9.9h1.1V112.9
					L235,112.9L235,112.9z M320.9,66.4l28.9-31.1h-28.3l-24.9,26.2v-56h-22.5v107.6h22.5V92.8l8.4-9.1l0.1-0.2l29.1,47.9h26.6
					L320.9,66.4L320.9,66.4L320.9,66.4z M385.3,115.2c9.3,0,17.2-2.3,19.5-3v-19c-1.4,0.5-7.4,1.5-12.6,1.5
					c-7.3,0-10.6-4.9-10.6-12.1V53.9h21.8V35.5h-21.8V15.8h-22.5V89C359.1,104.7,370.2,115.2,385.3,115.2L385.3,115.2L385.3,115.2z
					 M473.4,73.5c0,13.2-8.4,21.5-19.2,21.5c-10.8,0-19.2-8.3-19.2-21.5c0-13,9.2-20.9,19.2-20.9C464.3,52.6,473.4,60.5,473.4,73.5
					L473.4,73.5L473.4,73.5z M495.3,73.5c0-22.7-18-40.5-41.1-40.5c-22.9,0-41.1,17.9-41.1,40.5c0,25.9,20,41.3,41.1,41.3
					C475.4,114.8,495.3,99.4,495.3,73.5L495.3,73.5L495.3,73.5z M554.1,56.1V33c-11,0-20.8,6.8-23.7,11.3v-9.1H508v77.5h22.4V75.2
					C530.5,62.5,540.1,56.1,554.1,56.1L554.1,56.1L554.1,56.1z"/>
			</g>
		</g>
		<g>
			<g>
				<path id="SVGID_00000044890747017522105560000015309230053242727096_" class="st0" d="M59.3,40.1c0,7.1-5.4,12.1-15.5,12.1H28.7
					v-24h15.1C53.9,28.3,59.3,33,59.3,40.1L59.3,40.1L59.3,40.1z M91.6,112.9L64.8,68.8c10.9-5.3,18.7-14.9,18.7-29.7
					c0-21.7-17.8-34.4-38.9-34.4h-40V113h24V74H41l23.6,39h27V112.9L91.6,112.9z M151.5,66h-34.9c1.1-6.7,7.7-13.8,17.5-13.8
					C144,52.2,150.6,59.2,151.5,66L151.5,66L151.5,66z M172.8,81.8c0.3-1.8,0.5-5.5,0.5-8.2c0-22.1-16.1-40.5-39.8-40.5
					c-23.1,0-39.9,18.2-39.9,40.7c0,25.6,19.6,41.3,40.7,41.3c14.2,0,27.2-7.6,34.9-18.7L151,87c-3.8,4.5-9,8-16.4,8
					c-9.3,0-16.2-5.6-17.5-13.2H172.8L172.8,81.8L172.8,81.8z M235.1,83.3c0,2.3,0,3.2-1.1,5.2c-2.9,5.3-11.6,7.9-17,7.9
					c-5.8,0-11.2-1.8-11.2-7.3c0-7,8.4-8.5,14.7-9.9c7-1.5,9.8-2,14.5-2.9v7L235.1,83.3L235.1,83.3z M235,112.9h21.9V64.7
					c0-15.9-10.4-31.7-34.8-31.7c-22,0-33.2,12.9-36.1,22.1l21,4.1c1.8-3.5,6.9-7.1,14.1-7.1c8.7,0,13.9,4.5,13.9,9.3
					c-4.6,0.6-22.8,3.6-27.6,4.6c-13.9,2.7-24.6,10.5-24.6,25.2c0,13.3,11.8,23.7,27.1,23.7c10.6,0,17.8-3.6,24-9.9h1.1V112.9
					L235,112.9L235,112.9z M320.9,66.4l28.9-31.1h-28.3l-24.9,26.2v-56h-22.5v107.6h22.5V92.8l8.4-9.1l0.1-0.2l29.1,47.9h26.6
					L320.9,66.4L320.9,66.4L320.9,66.4z M385.3,115.2c9.3,0,17.2-2.3,19.5-3v-19c-1.4,0.5-7.4,1.5-12.6,1.5
					c-7.3,0-10.6-4.9-10.6-12.1V53.9h21.8V35.5h-21.8V15.8h-22.5V89C359.1,104.7,370.2,115.2,385.3,115.2L385.3,115.2L385.3,115.2z
					 M473.4,73.5c0,13.2-8.4,21.5-19.2,21.5c-10.8,0-19.2-8.3-19.2-21.5c0-13,9.2-20.9,19.2-20.9C464.3,52.6,473.4,60.5,473.4,73.5
					L473.4,73.5L473.4,73.5z M495.3,73.5c0-22.7-18-40.5-41.1-40.5c-22.9,0-41.1,17.9-41.1,40.5c0,25.9,20,41.3,41.1,41.3
					C475.4,114.8,495.3,99.4,495.3,73.5L495.3,73.5L495.3,73.5z M554.1,56.1V33c-11,0-20.8,6.8-23.7,11.3v-9.1H508v77.5h22.4V75.2
					C530.5,62.5,540.1,56.1,554.1,56.1L554.1,56.1L554.1,56.1z"/>
			</g>
			<g>
				<g>
					<path id="SVGID_00000004540904309532120310000006444699773436387499_" class="st0" d="M59.3,40.1c0,7.1-5.4,12.1-15.5,12.1
						H28.7v-24h15.1C53.9,28.3,59.3,33,59.3,40.1L59.3,40.1L59.3,40.1z M91.6,112.9L64.8,68.8c10.9-5.3,18.7-14.9,18.7-29.7
						c0-21.7-17.8-34.4-38.9-34.4h-40V113h24V74H41l23.6,39h27V112.9L91.6,112.9z M151.5,66h-34.9c1.1-6.7,7.7-13.8,17.5-13.8
						C144,52.2,150.6,59.2,151.5,66L151.5,66L151.5,66z M172.8,81.8c0.3-1.8,0.5-5.5,0.5-8.2c0-22.1-16.1-40.5-39.8-40.5
						c-23.1,0-39.9,18.2-39.9,40.7c0,25.6,19.6,41.3,40.7,41.3c14.2,0,27.2-7.6,34.9-18.7L151,87c-3.8,4.5-9,8-16.4,8
						c-9.3,0-16.2-5.6-17.5-13.2H172.8L172.8,81.8L172.8,81.8z M235.1,83.3c0,2.3,0,3.2-1.1,5.2c-2.9,5.3-11.6,7.9-17,7.9
						c-5.8,0-11.2-1.8-11.2-7.3c0-7,8.4-8.5,14.7-9.9c7-1.5,9.8-2,14.5-2.9v7L235.1,83.3L235.1,83.3z M235,112.9h21.9V64.7
						c0-15.9-10.4-31.7-34.8-31.7c-22,0-33.2,12.9-36.1,22.1l21,4.1c1.8-3.5,6.9-7.1,14.1-7.1c8.7,0,13.9,4.5,13.9,9.3
						c-4.6,0.6-22.8,3.6-27.6,4.6c-13.9,2.7-24.6,10.5-24.6,25.2c0,13.3,11.8,23.7,27.1,23.7c10.6,0,17.8-3.6,24-9.9h1.1V112.9
						L235,112.9L235,112.9z M320.9,66.4l28.9-31.1h-28.3l-24.9,26.2v-56h-22.5v107.6h22.5V92.8l8.4-9.1l0.1-0.2l29.1,47.9h26.6
						L320.9,66.4L320.9,66.4L320.9,66.4z M385.3,115.2c9.3,0,17.2-2.3,19.5-3v-19c-1.4,0.5-7.4,1.5-12.6,1.5
						c-7.3,0-10.6-4.9-10.6-12.1V53.9h21.8V35.5h-21.8V15.8h-22.5V89C359.1,104.7,370.2,115.2,385.3,115.2L385.3,115.2L385.3,115.2z
						 M473.4,73.5c0,13.2-8.4,21.5-19.2,21.5c-10.8,0-19.2-8.3-19.2-21.5c0-13,9.2-20.9,19.2-20.9C464.3,52.6,473.4,60.5,473.4,73.5
						L473.4,73.5L473.4,73.5z M495.3,73.5c0-22.7-18-40.5-41.1-40.5c-22.9,0-41.1,17.9-41.1,40.5c0,25.9,20,41.3,41.1,41.3
						C475.4,114.8,495.3,99.4,495.3,73.5L495.3,73.5L495.3,73.5z M554.1,56.1V33c-11,0-20.8,6.8-23.7,11.3v-9.1H508v77.5h22.4V75.2
						C530.5,62.5,540.1,56.1,554.1,56.1L554.1,56.1L554.1,56.1z"/>
				</g>
				<g>
					<defs>
						<path id="SVGID_00000044151676501730611860000009846410582047850153_" d="M59.3,40.1c0,7.1-5.4,12.1-15.5,12.1H28.7v-24h15.1
							C53.9,28.3,59.3,33,59.3,40.1L59.3,40.1L59.3,40.1z M91.6,112.9L64.8,68.8c10.9-5.3,18.7-14.9,18.7-29.7
							c0-21.7-17.8-34.4-38.9-34.4h-40V113h24V74H41l23.6,39h27V112.9L91.6,112.9z M151.5,66h-34.9c1.1-6.7,7.7-13.8,17.5-13.8
							C144,52.2,150.6,59.2,151.5,66L151.5,66L151.5,66z M172.8,81.8c0.3-1.8,0.5-5.5,0.5-8.2c0-22.1-16.1-40.5-39.8-40.5
							c-23.1,0-39.9,18.2-39.9,40.7c0,25.6,19.6,41.3,40.7,41.3c14.2,0,27.2-7.6,34.9-18.7L151,87c-3.8,4.5-9,8-16.4,8
							c-9.3,0-16.2-5.6-17.5-13.2H172.8L172.8,81.8L172.8,81.8z M235.1,83.3c0,2.3,0,3.2-1.1,5.2c-2.9,5.3-11.6,7.9-17,7.9
							c-5.8,0-11.2-1.8-11.2-7.3c0-7,8.4-8.5,14.7-9.9c7-1.5,9.8-2,14.5-2.9v7L235.1,83.3L235.1,83.3z M235,112.9h21.9V64.7
							c0-15.9-10.4-31.7-34.8-31.7c-22,0-33.2,12.9-36.1,22.1l21,4.1c1.8-3.5,6.9-7.1,14.1-7.1c8.7,0,13.9,4.5,13.9,9.3
							c-4.6,0.6-22.8,3.6-27.6,4.6c-13.9,2.7-24.6,10.5-24.6,25.2c0,13.3,11.8,23.7,27.1,23.7c10.6,0,17.8-3.6,24-9.9h1.1V112.9
							L235,112.9L235,112.9z M320.9,66.4l28.9-31.1h-28.3l-24.9,26.2v-56h-22.5v107.6h22.5V92.8l8.4-9.1l0.1-0.2l29.1,47.9h26.6
							L320.9,66.4L320.9,66.4L320.9,66.4z M385.3,115.2c9.3,0,17.2-2.3,19.5-3v-19c-1.4,0.5-7.4,1.5-12.6,1.5
							c-7.3,0-10.6-4.9-10.6-12.1V53.9h21.8V35.5h-21.8V15.8h-22.5V89C359.1,104.7,370.2,115.2,385.3,115.2L385.3,115.2L385.3,115.2
							z M473.4,73.5c0,13.2-8.4,21.5-19.2,21.5c-10.8,0-19.2-8.3-19.2-21.5c0-13,9.2-20.9,19.2-20.9
							C464.3,52.6,473.4,60.5,473.4,73.5L473.4,73.5L473.4,73.5z M495.3,73.5c0-22.7-18-40.5-41.1-40.5c-22.9,0-41.1,17.9-41.1,40.5
							c0,25.9,20,41.3,41.1,41.3C475.4,114.8,495.3,99.4,495.3,73.5L495.3,73.5L495.3,73.5z M554.1,56.1V33
							c-11,0-20.8,6.8-23.7,11.3v-9.1H508v77.5h22.4V75.2C530.5,62.5,540.1,56.1,554.1,56.1L554.1,56.1L554.1,56.1z"/>
					</defs>
					<use xlink:href="#SVGID_00000044151676501730611860000009846410582047850153_"  style="overflow:visible;fill:#1D1E1C;"/>
					<clipPath id="SVGID_00000036229033075753344620000007202198074389781652_">
						<use xlink:href="#SVGID_00000044151676501730611860000009846410582047850153_"  style="overflow:visible;"/>
					</clipPath>
					
						<rect style="clip-path:url(#SVGID_00000036229033075753344620000007202198074389781652_);fill:#1D1E1C;" width="558.7" height="136"/>
				</g>
			</g>
		</g>
	</g>
</g>
</svg>
